<svg width="72" height="72" viewBox="0 0 8842 8842" xmlns="http://www.w3.org/2000/svg" xml:space="preserve" style="fill-rule:evenodd;clip-rule:evenodd;stroke-linejoin:round;stroke-miterlimit:2"><path d="M1122.8 332.266s37.2 103.847 382.4 238.754c352.07 137.582 555.84 517.52 265.06 894.3-167.72 217.35-465.36 321.71-465.36 321.71s180.07-511.9-26.31-758.74c-206.38-246.849-329.801-428.946-155.79-696.024Z" style="fill:#f18e48;fill-rule:nonzero" transform="scale(4.16667)"/><path d="M212.309 1135.52s44.511-335.868 339.914-412.754l12.144-331.821s368.238 145.676 254.934 412.754l133.535 72.84s-194.484-21.836-740.527 258.981Z" style="fill:#f08039;fill-rule:nonzero" transform="scale(4.16667)"/><path d="M212.309 1135.52s85.808 54.07 213.027 97.73c79.102 27.13 228.051 35.81 333.269-28.93 105.208-64.75 194.231-327.781 194.231-327.781s-253.922-57.664-740.527 258.981Z" style="fill:#f18e48;fill-rule:nonzero" transform="scale(4.16667)"/><path d="M353.395 1277.5a44.195 44.195 0 0 1 6.773-16.17c7.473-10.98 24.777-25.25 38-28.26 13.34-3.03 27.305-2.55 40.75-.43 0 0 307.547 50.58 386.453-101.17 78.91-151.743 127.465-254.931 127.465-254.931S1523.41 767.281 1543.65 1333.8l-376.34 317.67s-345.982 58.67-356.107-222.57c0 0-50.582 20.24-117.348-20.23a942.702 942.702 0 0 0-11.73-6.98c-21.301-12.48-42.934-24.39-64.613-36.17-23.711-12.9-47.535-25.59-71.407-38.16a9276.348 9276.348 0 0 0-57.617-30.11c-5.738-2.97-11.48-5.93-17.218-8.89-2.329-1.2-4.786-2.77-7.297-3.49-3.852-1.09-9.18-1.89-12.836.33-2.746 1.65-3.516 5.13-4.297 8.03-2.602 9.71 2.621 18.86 6.726 27.37 1.801 3.72-.566 5.66-3.441 8.53-3.285 3.26-6.742 4.54-11.09 6.23-19.586 7.63-49.859 5.35-66.523-7.57-15.16-11.76-22.809-31.93-19.117-50.29Z" style="fill:#f08039;fill-rule:nonzero" transform="scale(4.16667)"/><path d="M924.508 1685.86s-163.887-315.63 64.75-463.34c228.632-147.7 554.392 111.28 554.392 111.28s-24.28 269.11-238.75 453.23l-562.49 2.02s10.125-125.44 182.098-103.19Z" style="fill:#d77433;fill-rule:nonzero" transform="scale(4.16667)"/><path d="M1465.23 554.926c-307.97-126.977-342.43-222.66-342.43-222.66-110.05 168.902-101.05 303.812-27.44 442.609l5.18-96.621s48.56 54.629 123.42 64.746c-26.3-40.465-26.3-82.953-26.3-117.352 0-33.398 137.35 38.086 267.57-70.722Z" style="fill:#f39f63;fill-rule:nonzero" transform="scale(4.16667)"/><path d="M514.456 980.402c0 41.718-22.956 75.538-51.265 75.538-28.304 0-51.253-33.82-51.253-75.538 0-41.718 22.949-75.539 51.253-75.539 28.309 0 51.265 33.821 51.265 75.539Z" style="fill:#380000;fill-rule:nonzero" transform="scale(4.16667)"/><path d="M831.629 1119.41c-2.066 4-4.145 8-6.258 12.06-78.906 151.75-386.453 101.17-386.453 101.17-13.445-2.12-27.41-2.6-40.75.43-13.223 3.01-30.527 17.28-38 28.26a44.195 44.195 0 0 0-6.773 16.17c-3.692 18.36 3.957 38.53 19.117 50.29 16.664 12.92 46.937 15.2 66.523 7.57 4.348-1.69 7.805-2.97 11.09-6.23 2.875-2.87 5.242-4.81 3.441-8.53-4.105-8.51-9.328-17.66-6.726-27.37.781-2.9 1.551-6.38 4.297-8.03 3.656-2.22 8.984-1.42 12.836-.33 2.511.72 4.968 2.29 7.297 3.49 5.738 2.96 11.48 5.92 17.218 8.89 19.235 9.97 38.442 20 57.617 30.11 23.872 12.57 47.696 25.26 71.407 38.16 21.679 11.78 43.312 23.69 64.613 36.17 3.926 2.3 7.832 4.62 11.73 6.98 66.766 40.47 117.348 20.23 117.348 20.23s221.937-226.58 20.426-309.49ZM1401.07 723.285c.06-.105.25 1.289 1.23 2.61.95 1.429 2.55 3.527 4.85 5.699 4.63 4.371 11.46 9.523 18.46 14.617 1.55 1.051 3.73 2.531 5.4 3.316 1.72.911 3.48 1.758 5.02 2.813a32.613 32.613 0 0 1 4.13 3.277c1.27.977 2.43 2.278 3.5 3.153 1.08.964 2.07 2.093 2.99 2.796.91.77 1.8 1.774 2.53 2.243 1.69 1.328 2.66 2.086 2.66 2.086l.1 1.496s-1.03.828-3.36 1.754c-1.22.57-2.53.64-4.22.867-1.73.211-3.48.054-5.45-.203-2.04-.207-3.88-.887-5.98-1.59-2-.758-3.99-1.781-5.84-3.094-1.8-1.344-3.48-2.984-5.07-4.84-1.73-1.883-2.78-3.367-4.49-5.242-2.93-3.383-5.9-6.816-8.38-10.316-2.54-3.434-4.68-6.875-6.29-9.977-1.61-3.109-2.69-5.84-3.07-8.004-.46-2.258-.09-3.16-.2-3.223l1.48-.238ZM1488.91 729.449l3.23 1.594 3.67 1.871c1.39.793 3.02 1.512 4.8 2.188 3.53 1.418 7.57 3.019 12.19 5.078 1.15.496 2.31 1 3.49 1.511 1.17.579 2.32 1.297 3.51 1.961 2.31 1.383 4.86 2.715 7.1 4.243 4.19 2.867 9.21 5.644 12.91 9.066 1.81 1.84 3.48 3.652 4.78 5.715 1.38 1.961 2.52 3.957 3.39 5.957.94 1.91 1.57 3.84 2.01 5.597.46 1.731.77 3.235.79 4.61.15 2.656-.08 4.14-.08 4.14l-1.39.583s-1.39-.821-3.27-2.2c-.9-.699-2.09-1.476-3.38-2.363-.68-.422-1.26-.945-1.93-1.441-.71-.489-1.5-.977-2.22-1.532-2.87-2.218-6.36-4.691-9.57-7.89-1.6-1.621-3.14-3.481-4.67-5.395-1.54-1.883-3.2-3.812-5.06-5.668-1.74-1.769-3.57-3.179-5.35-4.797-.9-.797-1.79-1.582-2.67-2.359-.98-.738-1.94-1.469-2.89-2.188-3.74-2.792-7.5-5.73-10.67-8.207-3.24-2.367-5.36-4.769-7.05-6.335-1.62-1.606-2.54-2.524-2.54-2.524l.87-1.215ZM1550.45 912.383s1.3.687 3.59 1.894c1.14.618 2.51 1.364 4.1 2.219 1.56.914 3.39 1.75 5.25 3.031 1.9 1.227 3.95 2.559 6.13 3.965a50.89 50.89 0 0 1 6.63 4.84c2.21 1.813 4.52 3.684 6.8 5.672 2.23 2.047 4.2 4.484 6.34 6.766 2.12 2.328 4.37 4.597 6.19 6.816 1.95 2.234 3.79 4.562 5.32 6.996 2.95 4.953 4.82 10.242 5.72 15.094.42 2.453.59 4.769.55 6.875-.07 2.101-.39 3.984-.84 5.472-.91 3.051-2.41 4.325-2.29 4.325l-1.44-.379s-.14-.371-.41-1.067c-.2-.64-.67-1.562-1.22-2.605-.63-1.067-1.35-2.274-2.3-3.633-.89-1.363-2.03-2.859-3.2-4.496-2.39-3.297-5.29-7.109-7.96-11.59-1.28-2.273-2.48-4.738-3.67-7.328-1.2-2.707-2.6-5.031-4.05-7.332-1.52-2.281-2.84-4.734-4.52-6.91-1.78-2.102-3.46-4.258-5.12-6.336-1.59-2.168-3.39-4-5.09-5.777-1.69-1.809-3.29-3.524-4.77-5.102-1.43-1.633-3.05-2.922-4.32-4.176-1.31-1.234-2.45-2.312-3.39-3.199l-2.92-2.828.89-1.207ZM1590.09 747.621s.9-.004 2.48-.008c.79-.027 1.87.317 3.1.61 1.29.316 2.38.898 3.82 1.461 2.6 1.304 5.6 3.109 8.3 5.484 2.85 2.266 5.37 5.09 7.88 7.926 2.36 2.902 5.39 5.492 7.09 8.558 1.69 3.071 2.31 6.403 2.57 9.305.17 2.953-.03 5.508-.5 7.387-.43 1.875-.95 2.992-.95 2.992l-1.41.5s-1.13-.531-2.65-1.555c-1.59-.992-3.46-2.519-5.45-4.398-1.93-1.91-3.95-4.168-5.39-6.93-1.34-2.812-1.93-6.285-3.35-9.34-1.4-3.027-2.93-6.008-4.49-8.679-.74-1.403-1.62-2.547-2.38-3.774-.78-1.176-1.62-2.191-2.4-3.16-.83-.801-1.64-1.773-2.35-2.293-.75-.516-1.3-1.152-2.03-1.516-1.42-.707-2.23-1.113-2.23-1.113l.34-1.457ZM1708.64 1070.61s.37.54 1.05 1.57c.65 1.06 1.74 2.5 2.89 4.52.86 2.17 2.44 4.87 3.18 8.09.42 1.59.94 3.3 1.34 5.12.29 1.84.6 3.76.93 5.77 1.02 8.07.97 17.54.97 27.27-.1 4.96-.2 10.1-.32 15.31-.39 5.26-.87 10.72-1.42 16.1-.71 5.31-1.29 10.68-2.09 15.91-.87 5.21-1.58 10.42-2.95 15.24-1.41 4.81-2.7 9.51-4.55 13.73-1.7 4.27-3.33 8.3-5.13 11.89-3.52 7.21-6.82 13.04-9.5 16.96-2.58 3.97-4.31 6.12-4.31 6.12l-1.4-.53s.09-2.77.67-7.43c.27-2.35.73-5.14 1.24-8.33.53-3.19 1.11-6.77 1.96-10.6.79-3.85 1.57-8 2.63-12.32 1.03-4.35 2-8.9 3.33-13.54 1.45-4.61 2.69-9.41 4.32-14.23 1.57-4.83 2.62-9.85 3.97-14.83 1-5 1.92-9.95 2.8-14.95l1.97-14.95c1.1-9.92 2.4-18.82 2.48-26.5-.04-1.91-.08-3.74-.11-5.48-.15-1.72-.41-3.33-.59-4.88-.13-1.57-.48-2.92-.85-4.17l-.9-3.52c-.8-2.13-1.66-3.76-2.13-4.89l-.78-1.73 1.3-.72ZM1703.14 903.938s.73-.079 2-.208c.64-.078 1.59.165 2.66.387 1.09.254 2.01.711 3.24 1.184 2.16 1.101 4.67 2.656 6.81 4.726 2.31 1.981 4.24 4.45 6.15 6.965 1.74 2.563 4.21 4.926 5.26 7.719 1.06 2.777.95 5.773.54 8.293-.54 2.59-1.46 4.762-2.49 6.195-1.06 1.477-1.95 2.11-1.95 2.11l-1.49-.106s-.7-.644-1.93-1.765a46.92 46.92 0 0 1-1.86-1.762c-.63-.656-1.4-1.399-2.03-2.168-1.36-1.598-2.72-3.383-3.48-5.578-.64-2.223-.51-5.012-1.25-7.508a69.521 69.521 0 0 0-2.52-7.133c-.43-1.164-1-2.117-1.47-3.133-.48-1.008-1.06-1.804-1.58-2.656-.55-.652-1.14-1.473-1.62-1.906-.52-.406-.89-.953-1.46-1.262-1.15-.59-1.81-.926-1.81-.926l.28-1.468ZM1612.28 1115.83s.27.96.73 2.63c.31.79.76 1.6 1.15 2.54.62.98 1.13 2.06 1.98 3.2 1.55 2.3 3.76 4.8 5.95 8.07.57.76 1.09 1.72 1.65 2.62l.41.69.42.96.6 1.3 2.42 5.32c.89 1.66 1.56 3.82 2.37 5.82.79 2.02 1.51 4.07 1.92 6.11.4 3.93-.21 7.65-.93 10.75-1.08 3.09-2.26 5.6-3.4 7.3-1.08 1.72-1.97 2.63-1.97 2.63l-1.49-.07s-.86-1.02-1.91-2.71c-1.1-1.69-2.23-4.04-3.24-6.78-1.19-2.7-2.28-5.77-2.53-9.09-.25-1.55-.2-3.19-.1-4.94.06-1.75.3-3.47-.15-5.48-.33-1.93-.66-3.86-.99-5.76l-.24-1.42-.07-.35-.02-.17-.01-.05-.01-.03c.06.13-.1-.31.11.29l-.02-.08-.14-.61c-.21-.81-.32-1.59-.61-2.44-.98-3.29-2.2-6.69-2.91-9.77-.42-1.47-.57-3.01-.79-4.24-.09-1.38-.17-2.57-.09-3.46.27-1.72.42-2.7.42-2.7l1.49-.08ZM1815.11 1190.41s.18.29.52.83c.3.58.91 1.24 1.38 2.44.48 1.16 1.16 2.73 1.49 4.39.48 1.71.74 3.63 1.07 5.76.22 2.1.42 4.41.5 6.82.06 1.22.04 2.44.04 3.7-.06 1.38.03 2.24-.17 4.11-.27 2.52-.55 5.14-.82 7.79-.42 2.67-.42 5.27-1.18 8.07-.67 2.79-1.26 5.63-1.82 8.47-.57 2.81-1.12 5.73-2.23 8.07-1.09 2.39-2.3 4.64-3.62 6.68-1.32 2.03-2.55 3.97-4.01 5.55-2.92 3.16-5.57 5.62-7.69 7.16-2.06 1.58-3.46 2.32-3.46 2.32l-1.29-.76s-.11-1.62.07-4.18c.14-2.6.71-6.06 1.66-10 .52-1.94.89-4.09 1.55-6.25.6-2.17 1.41-4.36 2.42-6.57 1.18-2.18 2.07-4.3 3.3-6.47 1.18-2.17 2.37-4.42 3.46-6.73 1.15-2.25 1.72-5.07 2.6-7.53.83-2.54 1.66-5.03 2.46-7.44.27-.61.61-2.23.88-3.26.28-1.15.55-2.28.81-3.38.52-2.2.89-4.27 1.21-6.2.21-1.91.45-3.7.42-5.25.1-1.62-.09-2.8-.13-3.93-.05-1.12-.45-2.06-.55-2.67l-.25-.95 1.38-.59ZM1597.68 1484.55s.86-1.23 2.36-3.37c1.42-2.18 3.88-5.09 6.09-8.86 1.14-1.86 2.44-3.82 3.69-5.94 1.12-2.18 2.31-4.49 3.54-6.88 1.38-2.27 2.01-5.01 3.13-7.5.5-1.27 1.01-2.55 1.53-3.84l1.17-4.08c.81-2.87 1.53-5.76 2.19-8.63.51-2.85 1.11-5.6 1.91-8.18 1.63-5 4.35-10.02 6.74-13.87 1.15-1.96 2.67-3.69 3.9-5.19 1.28-1.48 2.44-2.73 3.47-3.71 2.03-1.97 3.4-2.93 3.4-2.93l1.34.68s.18 1.75.13 4.52c-.02 1.4-.12 3.03-.29 4.85-.21 1.79-.45 3.82-.71 6.02-.54 4.56-1.45 9.24-3.27 14.8-.98 2.69-2.2 5.38-3.54 8.06-1.41 2.59-2.81 5.21-4.1 7.89l-2.04 4.2c-.82 1.35-1.63 2.69-2.44 4.03-1.68 2.61-3.05 5.33-5.04 7.51-1.85 2.24-3.64 4.41-5.34 6.45-1.85 1.91-3.7 3.62-5.33 5.22-3.25 3.26-6.15 5.49-8.19 7.18-2.03 1.65-3.2 2.59-3.2 2.59l-1.1-1.02ZM1612.51 1323.47s.27-3.06.97-7.51c.65-4.5 1.56-10.32 2.44-15.92.15-1.4.16-2.83.16-4.22.03-1.39-.03-2.71.15-3.91.2-1.18.67-2.29 1.22-3.33.41-.99.93-1.95 1.53-2.85.58-.91 1.31-1.78 1.75-2.53.52-.75 1.04-1.48 1.56-2.1.99-1.26 1.81-2.14 1.81-2.14l1.48-.23c-.01 0 .91.58 2.05 1.89.59.65 1.21 1.48 1.85 2.51.67 1.04 1.09 2.17 1.48 3.45.81 2.6 1.26 5.7.51 8.63-.33 1.52-1.02 2.97-1.87 4.32-.81 1.38-1.6 2.77-2.28 4.18-1.51 2.71-2.86 5.48-4.5 7.83-1.5 2.44-3.05 4.59-4.39 6.42-2.61 3.69-4.54 6.07-4.54 6.07l-1.38-.56ZM1724.01 1434.73s.49-1.04 1.33-2.85c.41-.92.95-2.01 1.57-3.25.71-1.23 1.17-2.69 1.65-4.24.49-1.52 1.01-3.17 1.57-4.91.43-1.82.89-3.73 1.35-5.71 1.04-3.89 1.49-8.27 2.23-12.46.18-2.16.24-4.33.26-6.45.08-2.11-.02-4.21.18-6.18.2-1.98.71-3.85 1.21-5.64.42-1.79.94-3.49 1.54-5.07.64-1.59 1.24-3.06 1.76-4.36.55-1.31 1.09-2.47 1.63-3.45 1.02-1.95 1.88-3.13 1.88-3.13l1.49-.09s.89 1.07 1.99 3.06c1.11 1.97 2.51 4.91 3.26 8.49.81 3.57 1.4 7.83.69 12.25-.31 2.22-.92 4.46-1.85 6.67-.84 2.22-1.67 4.46-2.39 6.71-.89 2.2-1.78 4.41-2.65 6.59-.78 2.17-1.91 4.22-3 6.17-1.11 1.95-2.01 3.85-3.17 5.58-1.23 1.68-2.39 3.28-3.47 4.75-1.05 1.47-2 2.75-3.02 3.68-.98.99-1.83 1.84-2.56 2.53l-2.26 2.18-1.22-.87ZM1803.39 927.527s.99 1.047 2.7 2.875c.84.926 1.86 2.051 3.04 3.336 1.2 1.258 2.46 2.77 3.75 4.567 1.32 1.769 2.76 3.687 4.28 5.715 1.57 2.035 2.75 4.375 4.23 6.714 1.42 2.368 3 4.782 4.13 7.454 1.25 2.64 2.51 5.328 3.77 8.007 1.04 2.782 2.19 5.539 3.35 8.278 1.29 2.707 2.01 5.547 2.59 8.308.44 2.797.96 5.477.78 8.114-.1 2.621-.33 5.089-.65 7.351-.51 4.514-2.18 8.234-3.22 10.724-1.1 2.5-2.01 3.85-2.01 3.85l-1.49-.11s-.85-1.48-1.86-3.94a56.52 56.52 0 0 1-1.6-4.35c-.31-.83-.5-1.7-.77-2.61-.34-.91-.73-1.865-1.05-2.853a64.743 64.743 0 0 1-1.78-6.332c-.49-2.238-1.29-4.555-1.68-7.012-.39-2.457-.44-5.07-.85-7.699-.32-2.644-.68-5.344-1.15-8.035-.71-2.633-1.42-5.266-2.11-7.859-.63-2.633-1.54-5.129-2.37-7.582-.86-2.426-1.57-4.895-2.48-7.059-.9-2.195-1.76-4.274-2.55-6.191a40.176 40.176 0 0 0-2.43-5.25c-.79-1.555-1.48-2.911-2.05-4.028a1380.81 1380.81 0 0 1-1.74-3.531l1.22-.852ZM1691.41 739.285c.07.11 1.14-.351 3.72-.094 1.33.067 2.75.426 4.38 1.004 1.62.571 3.39 1.391 5.17 2.473 3.62 2.113 7.41 5.156 10.97 8.742 3.69 3.547 6.99 7.594 10.4 11.445 3.35 3.907 7.48 7.731 10.17 12.098 1.29 2.242 2.41 4.481 3.12 6.863.39 1.149.71 2.297 1.03 3.399.2 1.18.43 2.301.56 3.394.37 2.125.35 4.235.2 6.082-.12 1.825-.32 3.372-.83 4.704-.85 2.589-1.63 3.843-1.63 3.843l-1.5-.023s-.99-1.305-2.21-3.199c-.53-.938-1.4-2.036-2.33-3.243-.49-.593-.86-1.242-1.32-1.894-.52-.649-1.06-1.332-1.63-2.047-2.02-2.855-4.65-6.09-6.88-9.949-1.04-1.969-2.14-4.102-3.07-6.36-1.05-2.226-2.1-4.457-3.43-6.718-2.59-4.485-5.1-8.938-7.5-12.875-2.45-3.942-4.91-7.45-7.39-10.059a23.15 23.15 0 0 0-3.65-3.226c-1.15-.821-2.31-1.508-3.18-1.86-.85-.461-1.75-.672-2.36-.789-.59-.141-.91-.215-.91-.215l.1-1.496ZM1498.63 609.594s1 .004 2.78.148c.9.203 2.22.442 3.41.914 1.23.446 2.62.985 4.02 1.684 2.84 1.32 6.05 3.183 9.11 4.801.81.406 1.64.82 2.48 1.238.84.445 1.71.898 2.58 1.355 1.73.934 3.54 2.047 5.34 3.082 3.4 2.094 7.25 3.43 10.14 5.387 1.43.934 2.69 2.082 3.8 3.227a31.592 31.592 0 0 1 3.06 3.289c.92 1 1.74 2.008 2.51 2.984.73 1.07 1.42 1.754 2.01 2.527 1.18 1.465 1.95 2.618 1.95 2.618l-.3 1.465s-1.12.578-3.25 1.042c-1.06.231-2.45.489-3.84.407-1.41-.059-3.07-.168-4.8-.477-3.29-.762-7.04-2.062-10.2-4.387-3.12-2.378-5.55-5.843-8.39-8.597-1.36-1.34-2.65-2.688-4.08-4.024l-2.12-2c-.72-.695-1.42-1.382-2.11-2.054-2.86-2.832-4.94-5.461-6.96-7.524-.99-1.058-1.94-1.91-2.81-2.66-.86-.762-1.57-1.184-2.23-1.738-1.52-.832-2.46-1.254-2.46-1.254l.36-1.453ZM1430.88 646.477l1.68 1.429c1.08.918 2.55 2.184 4.19 4.012.84.859 1.76 1.941 2.71 2.852.97.843 1.87 1.765 2.83 2.668.95.925 2.17 1.394 3.14 2.167.46.293 1.13.829 1.38.922l2.09 1.094c1.44.77 2.48.875 3.76 1.219 1.32.211 2.52.558 3.61.898 1.07.457 2.02 1.004 2.92 1.621.91.688 1.79 1.207 2.62 1.911 1.87 1.507 3.42 2.765 4.51 3.648 1.25 1.008 2.12 1.852 2.12 1.852l.16 1.488s-.69.906-2.15 2.023c-.73.59-1.66 1.188-2.78 1.641-1.11.43-2.46 1.019-3.89 1.191-1.44.215-3.08.407-4.69.188-1.67-.098-3.37-.473-4.96-1.227-1.64-.668-3.03-1.886-4.42-3.058-1.32-1.258-2.98-2.715-4-3.821l-1.64-1.699c-.9-.926-1.24-1.551-1.87-2.332-1.08-1.488-2.26-2.918-2.92-4.418-.66-1.508-1.32-2.922-1.85-4.293-.49-1.328-.77-2.473-1.13-3.605-.6-2.266-1.5-4.078-1.91-5.426-.47-1.328-.74-2.086-.74-2.086l1.23-.859Z" style="fill:#d77433;fill-rule:nonzero" transform="scale(4.16667)"/><path d="m212.309 1135.52 4.808-23.39s24.113-4.99 26.61 6.65c2.492 11.65-21.618 22.87-21.618 22.87l-9.8-6.13Z" style="fill:#380000;fill-rule:nonzero" transform="scale(4.16667)"/><path d="M1426.6 1705.57s30.56-16.93 73.83-46.34c21.61-14.73 46.35-32.58 72.18-52.52 12.83-10.08 26-20.6 39-31.72 13.1-11.01 26.02-22.65 38.7-34.5 6.39-5.87 12.47-12.07 18.68-18.06 6.1-6.12 12.06-12.33 17.95-18.49 11.54-12.55 22.86-24.9 33.25-37.32 10.56-12.28 20.45-24.39 29.59-36.07 9.13-11.69 17.26-23.1 24.67-33.73 3.59-5.4 7.03-10.57 10.29-15.49 3.08-5.04 6-9.83 8.74-14.33 2.86-4.45 5.25-8.77 7.4-12.8 2.25-4 4.32-7.66 6.19-10.97 3.55-6.73 6-12.19 7.93-15.81 1.88-3.65 2.88-5.6 2.88-5.6l1.41.52-1.84 6.03c-1.22 3.93-3.02 9.72-5.57 17-2.89 7.11-5.92 16.06-10.66 25.71a625.38 625.38 0 0 1-7.46 15.44c-2.92 5.3-5.97 10.87-9.16 16.67-3.28 5.77-7.05 11.55-10.77 17.67-3.72 6.12-8.17 12.01-12.42 18.31-8.7 12.47-18.63 25.05-29.4 37.62a676.35 676.35 0 0 1-35.06 36.98c-6.29 5.96-12.63 11.96-18.99 17.99-6.53 5.85-12.91 11.89-19.6 17.6-13.22 11.57-26.64 22.9-40.21 33.58-13.48 10.81-27.09 20.97-40.33 30.71-13.35 9.57-26.27 18.8-38.86 27.06-12.5 8.37-24.55 15.95-35.67 22.91-44.67 27.63-75.99 43.27-75.99 43.27l-.7-1.32Z" style="fill:#d77433;fill-rule:nonzero" transform="scale(4.16667)"/><path d="M890.719 1465.11s-.367-6.99.273-19.16c.672-12.18 2.258-29.6 6.617-50.14 2.086-10.29 5.008-21.31 8.684-32.8 3.594-11.53 8.543-23.3 14.102-35.29 5.98-11.77 12.402-23.92 20.55-35.27l2.938-4.34 3.219-4.16 6.476-8.38 7.043-7.96c2.332-2.68 4.699-5.34 7.309-7.77l7.609-7.5c2.543-2.49 5.363-4.67 8.031-7.01 5.301-4.77 11.024-8.92 16.72-13.07l4.24-3.13 4.43-2.81c2.96-1.82 5.92-3.65 8.86-5.46 5.89-3.59 12.13-6.37 18.06-9.5 6.07-2.84 12.27-5.07 18.27-7.41 5.99-2.36 12.14-3.81 17.99-5.57 5.83-1.85 11.69-2.88 17.29-4.09 5.64-1.07 11.03-2.31 16.31-2.81 10.53-1.35 20.15-2.46 28.74-2.55 4.28-.14 8.28-.26 11.98-.38 3.69-.18 7.11.24 10.17.31 12.26.52 19.2 1.1 19.2 1.1l.02 1.49s-6.93 1.15-18.94 2.66c-6.01.66-13.23 2.09-21.48 3.52-4.11.84-8.55 1.21-13.1 2.38-4.56 1.03-9.36 2.12-14.36 3.24-5.03.92-10.1 2.59-15.4 4.08-5.28 1.49-10.81 2.8-16.24 4.91-2.75.96-5.53 1.94-8.34 2.92-2.82.96-5.7 1.86-8.47 3.13-5.56 2.5-11.46 4.49-17.14 7.24-5.63 2.81-11.62 5.21-17.25 8.43-5.53 3.38-11.6 6.06-17 9.92-2.78 1.82-5.57 3.63-8.364 5.46-2.817 1.8-5.332 4.03-8.028 6.04-2.621 2.1-5.41 4.02-7.918 6.27l-7.535 6.77c-2.578 2.2-4.926 4.63-7.246 7.09l-7.016 7.32-6.503 7.74-3.243 3.86-2.976 4.05c-8.258 10.54-14.906 22-21.164 33.16-5.883 11.37-11.028 22.68-15.199 33.71-4.188 11.02-7.637 21.67-10.227 31.67-5.383 19.96-7.883 37.11-9.203 49.12-1.285 12.04-1.297 18.95-1.297 18.95l-1.492.02ZM767.68 1757.59s.097-.62.453-1.86c.328-1.24.914-2.94 1.812-5.1.489-1.05.977-2.25 1.61-3.51.695-1.22 1.453-2.54 2.254-3.95 1.808-2.67 3.773-5.85 6.488-8.79 2.508-3.18 5.723-6.1 9.098-9.29 1.73-1.54 3.671-2.88 5.589-4.38 1.914-1.51 3.926-2.97 6.11-4.21l6.558-4.02c2.266-1.27 4.668-2.29 7.043-3.46 4.723-2.46 9.77-4.2 14.813-6.05 4.972-2.13 10.172-3.26 15.211-4.9 5.039-1.72 10.125-2.62 15.062-3.4 4.953-.7 9.754-1.33 14.336-1.11 4.571-.01 8.883.11 12.852.35 1.984.02 3.879.26 5.679.57 1.801.29 3.5.48 5.102.8 3.195.57 5.969 1.11 8.246 1.65 4.543 1.04 7.106 1.91 7.106 1.91l-.039 1.49s-2.606.89-7.102 1.97c-2.25.56-4.969 1.14-8.074 1.74-3.094.63-6.606.99-10.364 1.83-3.765.79-7.828 1.5-12.121 2.11-4.261.68-8.757 1.38-13.406 2.13-4.648.6-9.531.85-14.363 1.68-4.844.75-9.903 1.28-14.676 2.65-4.816 1.26-9.715 2.4-14.242 4.24-2.293.85-4.617 1.62-6.848 2.51-2.179 1-4.328 1.99-6.441 2.96-2.18.9-4.168 2.02-6.074 3.2-1.911 1.16-3.879 2.19-5.668 3.36-3.465 2.48-6.856 4.77-9.555 7.37-2.922 2.39-5.113 5.06-7.172 7.33-1.91 2.39-3.496 4.55-4.652 6.44-2.344 3.76-3.18 6.14-3.18 6.14l-1.445-.4ZM851.891 1150.13s4.414 1.85 11.136 6.66c6.625 4.86 15.719 12.91 23.157 25.3 3.687 6.15 7.117 13.27 9.437 21.25 2.32 7.96 3.727 16.67 4.074 25.73.137 9.02-.261 18.42-2.031 27.71-1.469 9.36-4.059 18.6-6.957 27.72-1.453 4.56-3.242 8.97-4.848 13.46-1.734 4.43-3.707 8.72-5.507 13.06-3.891 8.52-7.93 16.86-12.594 24.43-4.488 7.69-9.465 14.69-14.309 21.21-4.812 6.54-9.812 12.37-14.328 17.8-4.66 5.31-9.176 9.96-13.113 14.12-3.926 4.17-7.711 7.47-10.715 10.28-6.082 5.55-9.742 8.53-9.742 8.53l-1.129-.99s2.344-4.13 6.762-11c2.148-3.49 5.043-7.48 8.011-12.31 3.043-4.77 6.524-10.1 10.368-15.84 1.839-2.93 3.753-5.97 5.742-9.12 2.004-3.13 4.25-6.25 6.211-9.66 4.015-6.78 8.617-13.67 12.879-21.06 4.593-7.21 8.945-14.85 13.394-22.61 2.051-3.95 4.281-7.89 6.191-11.98 1.801-4.12 3.805-8.21 5.473-12.41 3.242-8.42 6.219-16.98 8.11-25.63 2.191-8.6 3.058-17.27 3.457-25.65.222-8.4-.719-16.48-2.239-24.02-1.57-7.54-4.242-14.39-7.25-20.43-6.047-12.17-14.211-20.51-20.148-25.81-6.094-5.25-10.164-7.41-10.164-7.41l.672-1.33ZM967.836 887.301c0 .004 35.564-7.121 89.874-8.488 13.56-.208 28.29-.36 43.84.406 15.57.551 31.95 2.043 48.83 4.09 8.43 1.171 17.03 2.207 25.65 3.839 4.31.774 8.67 1.45 13.02 2.321 4.34.926 8.7 1.859 13.08 2.797 8.79 1.722 17.46 4.351 26.27 6.507 8.68 2.653 17.48 5.118 26.08 8.153 8.58 3.125 17.27 5.961 25.61 9.668 4.21 1.754 8.41 3.504 12.59 5.25 4.1 1.965 8.19 3.926 12.25 5.875 16.36 7.668 31.57 17.039 45.89 26.656 7.1 4.906 13.66 10.328 20.2 15.43 6.38 5.32 12.23 10.992 18.04 16.343 5.67 5.497 10.72 11.329 15.85 16.702 2.57 2.67 4.87 5.52 7.04 8.36 2.22 2.82 4.39 5.58 6.52 8.29 2.1 2.73 4.26 5.3 6.17 7.98 1.8 2.75 3.57 5.44 5.29 8.05 3.37 5.28 6.83 10.09 9.59 14.93 5.24 9.83 10.09 18.19 13.31 25.49 6.38 14.6 9.72 22.97 9.72 22.97l-1.35.64s-4.91-7.64-12.98-21.07c-1.9-3.42-4.7-6.81-7.34-10.7-2.68-3.87-5.58-8.05-8.67-12.52-3.23-4.35-6.93-8.8-10.67-13.58-1.88-2.37-3.82-4.81-5.79-7.3-2.07-2.42-4.3-4.8-6.52-7.27-8.69-10.05-18.97-20.1-30.07-30.409-5.86-4.816-11.6-10.078-17.82-15.027-6.45-4.649-12.64-9.93-19.48-14.559-13.51-9.52-27.95-18.73-43.32-26.93-3.85-2.058-7.71-4.121-11.58-6.187-3.99-1.84-8-3.684-12-5.535-7.95-3.887-16.3-6.938-24.54-10.278-8.28-3.222-16.78-5.89-25.18-8.75-8.54-2.367-16.94-5.211-25.51-7.16-4.26-1.055-8.51-2.101-12.73-3.144-4.24-.993-8.51-1.786-12.72-2.68-8.41-1.871-16.84-3.145-25.11-4.563-8.28-1.32-16.47-2.335-24.48-3.351-8.04-.774-15.89-1.774-23.57-2.289-15.35-1.403-29.93-1.856-43.39-2.207-26.93-.449-49.4.765-65.078 2.027-15.687 1.328-24.562 2.699-24.562 2.699l-.254-1.476ZM589.109 415.07s24.477 10.18 58.18 31.2c8.375 5.312 17.441 11.121 26.691 17.753 9.352 6.512 18.821 13.922 28.473 21.782 9.531 8.008 19.313 16.406 28.621 25.648 9.465 9.074 18.496 18.91 27.242 29.024 8.563 10.265 16.864 20.808 24.25 31.796l5.547 8.184c1.684 2.828 3.352 5.637 5.012 8.434 3.418 5.539 6.289 11.3 9.156 16.945 5.516 11.398 9.946 22.879 13.215 34.031 3.297 11.129 5.852 21.836 7.16 31.875 1.864 9.942 1.938 19.27 2.563 27.391-.106 8.191-.168 15.289-.594 21.109-1.266 11.645-2.266 18.172-2.266 18.172l-1.488-.086s-.758-6.629-1.609-18.012c-.672-5.687-1.731-12.55-2.754-20.363-1.676-7.75-2.926-16.531-5.586-25.84-1.176-4.683-2.328-9.558-4.09-14.461-1.633-4.929-2.918-10.132-5.074-15.222-3.86-10.309-8.266-21.039-13.528-31.836-2.57-5.426-5.093-10.992-8.195-16.371-1.469-2.731-2.941-5.477-4.426-8.239-1.605-2.699-3.222-5.414-4.839-8.136-6.383-10.973-13.981-21.457-21.75-31.825-8.047-10.148-16.418-20.093-25.278-29.339-8.699-9.407-17.929-18.039-26.945-26.305a572.612 572.612 0 0 0-27.043-22.691c-8.77-7.043-17.402-13.262-25.402-18.969-32.258-22.531-55.864-34.289-55.864-34.289l.621-1.36Z" style="fill:#b86229;fill-rule:nonzero" transform="scale(4.16667)"/><path d="M1106.62 407.852s-2.52 4.082-6.24 11.625c-1.72 3.843-4.04 8.375-6.18 13.824-2.34 5.359-4.59 11.566-6.96 18.344-1.29 3.343-2.21 6.992-3.38 10.679-1.06 3.727-2.4 7.485-3.27 11.512-1.93 7.996-4.21 16.336-5.67 25.18-1.9 8.742-2.96 17.933-4.13 27.234-.73 4.629-.96 9.359-1.25 14.09-.31 4.726-.61 9.473-.91 14.219-.08 9.515-.02 19.023.21 28.351.82 9.332 1.47 18.485 1.94 27.352.98 8.836 1.8 17.383 2.3 25.547.14 4.093.85 8.007 1.35 11.824.45 3.828.89 7.527 1.31 11.078.88 7.109 1.28 13.734 2.41 19.461.9 5.777 1.64 10.848 2.16 15.055 1.08 8.41 1.46 13.332 1.46 13.332l-1.43.429s-2.05-4.425-5.21-12.371c-1.6-3.969-3.44-8.832-5.5-14.441-2.21-5.578-3.84-12.094-5.65-19.219-1.71-7.141-4-14.832-5.24-23.176-1.35-8.328-2.47-17.172-3.51-26.328-.36-9.219-.42-18.762-.41-28.422.61-9.668 1.08-19.48 1.85-29.246.6-4.871 1.2-9.738 1.79-14.59.59-4.843 1.12-9.672 2.13-14.394 1.76-9.485 3.39-18.817 5.86-27.664 2.06-8.93 4.76-17.379 7.37-25.344 1.19-4.023 2.85-7.773 4.21-11.473 1.46-3.664 2.66-7.273 4.23-10.586 2.92-6.707 5.66-12.804 8.44-18.058 2.55-5.348 5.28-9.766 7.35-13.465 4.41-7.277 7.33-11.195 7.33-11.195l1.24.836ZM922.098 889.969s-6.18 18.824-16.785 46.59c-5.282 13.886-11.598 30.046-18.911 47.144-7.261 17.117-15.316 35.257-23.871 53.217-4.25 8.99-8.652 17.92-13.027 26.71-4.395 8.78-8.918 17.34-13.734 25.4-2.461 3.99-4.817 7.96-7.411 11.68-2.48 3.79-5.011 7.43-7.64 10.88-5.067 6.99-10.235 13.37-15.336 19.01-2.426 2.9-5.055 5.47-7.504 7.92a104.191 104.191 0 0 1-7.203 6.75c-2.289 2.08-4.567 3.89-6.742 5.5-2.157 1.61-4.102 3.11-6.059 4.24-1.91 1.16-3.613 2.19-5.094 3.09a86.298 86.298 0 0 1-4.011 1.86c-2.168.95-3.325 1.47-3.325 1.47l-.73-1.31s.922-.83 2.656-2.37c.852-.76 1.91-1.69 3.145-2.78 1.152-1.19 2.472-2.57 3.949-4.1 1.527-1.44 3-3.31 4.656-5.25 1.699-1.89 3.469-3.99 5.219-6.39 3.683-4.58 7.523-10.04 11.625-16.03 2.051-3 4.183-6.11 6.238-9.48 2.176-3.26 4.383-6.67 6.531-10.26 4.356-7.15 8.938-14.69 13.692-22.5 4.797-7.82 9.758-15.89 14.801-24.1 5.027-8.25 9.843-16.82 14.648-25.4 18.957-34.491 35.895-70.179 48.527-96.976 12.457-26.886 20.301-45.046 20.301-45.046l1.395.531Z" style="fill:#d17c3e;fill-rule:nonzero" transform="scale(4.16667)"/><path d="M387.055 830.961c0-.004 2.035-2.277 5.769-6.066 3.719-3.817 9.227-9.059 16.074-15.114 3.395-3.058 7.168-6.269 11.211-9.609 3.969-3.442 8.485-6.633 12.993-10.18 4.648-3.34 9.398-6.894 14.398-10.265 5.027-3.321 10.047-6.86 15.336-9.981a349.862 349.862 0 0 1 15.73-9.48c2.637-1.512 5.219-3.082 7.852-4.481 2.648-1.359 5.336-2.57 7.961-3.801 5.266-2.418 10.523-4.394 15.668-5.824l7.409-2.254c2.403-.683 4.828-1.062 7.091-1.578 4.555-.953 8.766-1.656 12.48-2.234 3.793-.34 7.09-.574 9.813-.68 5.437-.25 8.547-.113 8.547-.113l.312 1.465s-2.758 1.582-7.594 3.863c-2.41 1.16-5.347 2.465-8.71 3.887-3.317 1.593-7.024 3.425-11.118 5.191-4.105 1.719-8.449 3.863-13.071 5.977-2.297 1.101-4.686 2.136-7.143 3.164-2.391 1.183-4.895 2.257-7.411 3.41-2.562 1.055-5.144 2.168-7.828 3.168a8307.868 8307.868 0 0 1-7.992 3.383c-5.449 2.148-10.793 4.757-16.148 7.382-5.399 2.543-10.567 5.52-15.762 8.289-5.164 2.825-10.106 5.856-14.953 8.696-9.489 5.988-18.406 11.582-25.774 16.793-14.84 10.301-24.097 18.066-24.097 18.066l-1.043-1.074Z" style="fill:#b86229;fill-rule:nonzero" transform="scale(4.16667)"/></svg>